# xmcd CD database file
#
# Track frame offsets:
#	150
#	13555
#	28426
#	39779
#	53399
#	64950
#	78616
#	93025
#	106454
#	121683
#	135942
#	149028
#	163220
#	188934
#	200973
#	213393
#	227095
#	239826
#
# Disc length: 3384 seconds
#
# Revision: 0
# Processed by: cddbd v1.5.1PL0 Copyright (c) Steve Scherf et al.
# Submitted via: CDex 1.50beta9
#
DISCID=030d3612
DTITLE=James Moody - Just Moody - CD 1
DYEAR=1900
DGENRE=Jazz
TTITLE0=The fuller bop Man
TTITLE1=Workshop
TTITLE2=On Henry
TTITLE3=Moodamorphosis
TTITLE4=Moody's all Frantic
TTITLE5=Tropicana
TTITLE6=Stardust
TTITLE7=Just Moody
TTITLE8=Curly top Blues
TTITLE9=Moody and Soul
TTITLE10=Out of Nowhere
TTITLE11=These Foolish Tings
TTITLE12=Three Bop Mice - Parts 1&2
TTITLE13=I'm in the Mood for Groovin'
TTITLE14=The Flight of the Bopple Bee
TTITLE15=Body and Soul
TTITLE16=I#M in the Mood for Love
TTITLE17=Lester Leaps in
EXTD=
EXTT0=
EXTT1=
EXTT2=
EXTT3=
EXTT4=
EXTT5=
EXTT6=
EXTT7=
EXTT8=
EXTT9=
EXTT10=
EXTT11=
EXTT12=
EXTT13=
EXTT14=
EXTT15=
EXTT16=
EXTT17=
PLAYORDER=
